2.2Hzlow3min_grf.mot
version=1
nRows=25
nColumns 19
inDegrees=yes
endheader
time	1_ground_force_vx	1_ground_force_vy	1_ground_force_vz	1_ground_force_px	1_ground_force_py	1_ground_force_pz	1_ground_torque_x	1_ground_torque_y	1_ground_torque_z	2_ground_force_vx	2_ground_force_vy	2_ground_force_vz	2_ground_force_px	2_ground_force_py	2_ground_force_pz	2_ground_torque_x	2_ground_torque_y	2_ground_torque_z
            2.502500	           11.824659	           69.747996	            4.259247	           -0.251116	            0.006324	           -0.429672	            0.015482	            0.091319	            0.005577	           14.996694	          116.054537	            4.490137	           -0.229968	            0.005693	           -0.708874	           -0.005499	           -0.042553	           -0.001646
            2.503000	           11.687915	           67.944526	            4.435282	           -0.250861	            0.006315	           -0.427501	            0.019553	            0.113665	            0.007420	           14.543419	          111.817943	            4.334439	           -0.229562	            0.005688	           -0.706933	            0.002152	            0.016545	            0.000641
            2.503500	           11.458687	           66.142415	            4.290553	           -0.250654	            0.006314	           -0.427393	            0.024394	            0.140811	            0.009134	           14.782862	          110.346607	            4.047515	           -0.229520	            0.005692	           -0.708161	           -0.000611	           -0.004562	           -0.000167
            2.504000	           11.183440	           63.439557	            4.004506	           -0.249192	            0.006322	           -0.429031	            0.023122	            0.131160	            0.008279	           14.232750	          107.028903	            4.317495	           -0.229971	            0.005686	           -0.706877	            0.002378	            0.017880	            0.000721
            2.504500	           10.817954	           60.914390	            4.315586	           -0.247975	            0.006321	           -0.428877	            0.026416	            0.148744	            0.010538	           14.240705	          104.819290	            4.262682	           -0.229560	            0.005694	           -0.708698	            0.001110	            0.008172	            0.000332
            2.505000	           10.405273	           58.932174	            4.124684	           -0.248097	            0.006328	           -0.430478	            0.021824	            0.123606	            0.008651	           14.063213	          102.056883	            4.112122	           -0.230212	            0.005693	           -0.709053	           -0.004450	           -0.032297	           -0.001301
            2.505500	           10.268870	           57.128115	            4.438287	           -0.249362	            0.006318	           -0.428130	            0.026697	            0.148521	            0.011539	           13.889085	           98.373407	            4.052132	           -0.228376	            0.005694	           -0.707570	           -0.016650	           -0.117927	           -0.004858
            2.506000	            9.582433	           55.504018	            4.799884	           -0.249575	            0.006309	           -0.426076	            0.011689	            0.067705	            0.005855	           13.944349	           95.981497	            3.527362	           -0.228486	            0.005697	           -0.708326	           -0.015390	           -0.105929	           -0.003893
            2.506500	            9.583217	           53.700575	            4.975579	           -0.246606	            0.006308	           -0.425765	            0.010238	            0.057368	            0.005315	           13.718699	           93.587050	            3.425063	           -0.229626	            0.005691	           -0.708007	           -0.004132	           -0.028185	           -0.001032
            2.507000	            9.353163	           50.818639	            4.413509	           -0.247292	            0.006330	           -0.430858	            0.023137	            0.125709	            0.010918	           13.447445	           90.824822	            3.133758	           -0.230379	            0.005689	           -0.708106	           -0.003362	           -0.022709	           -0.000784
            2.507500	            9.307304	           50.278030	            4.365448	           -0.246806	            0.006313	           -0.427000	            0.032723	            0.176767	            0.015348	           13.179741	           87.140004	            3.355377	           -0.228789	            0.005688	           -0.706222	           -0.001142	           -0.007548	           -0.000291
            2.508000	            8.987353	           47.573196	            4.538074	           -0.248166	            0.006323	           -0.429337	            0.021875	            0.115793	            0.011046	           13.093229	           85.115031	            3.066621	           -0.227347	            0.005698	           -0.707533	           -0.013613	           -0.088493	           -0.003188
            2.508500	            8.575158	           46.671395	            4.626945	           -0.250072	            0.006316	           -0.427741	            0.024125	            0.131302	            0.013017	           13.101869	           82.721110	            3.058079	           -0.228328	            0.005695	           -0.707599	           -0.020299	           -0.128159	           -0.004738
            2.509000	            8.254601	           45.409277	            4.668186	           -0.245531	            0.006305	           -0.424941	            0.029941	            0.164708	            0.016932	           13.020009	           79.407106	            2.764723	           -0.228629	            0.005689	           -0.706438	           -0.026567	           -0.162026	           -0.005641
            2.509500	            7.842766	           43.786019	            4.845677	           -0.246279	            0.006293	           -0.422272	            0.020451	            0.114178	            0.012636	           12.325195	           77.195124	            2.663281	           -0.228304	            0.005692	           -0.706804	           -0.016820	           -0.105346	           -0.003635
            2.510000	            7.567857	           42.344038	            4.794320	           -0.245663	            0.006295	           -0.422706	            0.019994	            0.111870	            0.012666	           12.331717	           75.354645	            2.375142	           -0.228193	            0.005694	           -0.707313	           -0.025619	           -0.156550	           -0.004934
            2.510500	            7.613589	           41.082776	            4.651228	           -0.246501	            0.006298	           -0.423322	            0.024354	            0.131412	            0.014878	           12.197855	           73.512319	            2.462487	           -0.228127	            0.005696	           -0.707757	           -0.009469	           -0.057066	           -0.001912
            2.511000	            7.522706	           38.558450	            4.778202	           -0.242687	            0.006305	           -0.424806	            0.029691	            0.152182	            0.018859	           11.929260	           70.013483	            2.168554	           -0.226842	            0.005694	           -0.705776	           -0.010803	           -0.063404	           -0.001964
            2.511500	            7.018435	           37.296886	            4.682331	           -0.245485	            0.006309	           -0.425818	            0.022082	            0.117346	            0.014732	           11.466784	           68.354129	            2.256696	           -0.226694	            0.005699	           -0.707162	           -0.016758	           -0.099895	           -0.003298
            2.512000	            6.697375	           35.675219	            4.492747	           -0.245290	            0.006321	           -0.428667	            0.017635	            0.093939	            0.011830	           11.428410	           65.961363	            1.872749	           -0.225892	            0.005696	           -0.705386	           -0.033116	           -0.191136	           -0.005427
            2.512500	            6.606130	           35.133814	            4.628223	           -0.243681	            0.006271	           -0.416921	            0.030653	            0.163024	            0.021475	           11.061730	           63.749058	            2.193521	           -0.225962	            0.005702	           -0.707355	           -0.028826	           -0.166124	           -0.005716
            2.513000	            6.239535	           33.691815	            4.577094	           -0.241167	            0.006292	           -0.421841	            0.025328	            0.136767	            0.018580	           10.742900	           61.171304	            1.762108	           -0.227254	            0.005693	           -0.706018	           -0.028611	           -0.162912	           -0.004693
            2.513500	            5.827766	           31.708026	            4.753039	           -0.243349	            0.006288	           -0.420901	            0.021261	            0.115680	            0.017340	           10.424276	           58.591876	            1.799977	           -0.226763	            0.005693	           -0.705479	           -0.007227	           -0.040623	           -0.001248
            2.514000	            5.827687	           30.266491	            4.609288	           -0.242810	            0.006316	           -0.427455	            0.030357	            0.157660	            0.024010	           10.429511	           57.119359	            1.607008	           -0.225594	            0.005698	           -0.705762	           -0.024026	           -0.131583	           -0.003702
            2.514500	            5.643665	           30.087369	            4.333834	           -0.241758	            0.006277	           -0.418375	            0.027471	            0.146452	            0.021095	            9.921308	           55.093205	            1.224575	           -0.225024	            0.005698	           -0.705111	           -0.021867	           -0.121429	           -0.002699
